<?xml version="1.0" encoding="utf-8"?>
<!-- Svg Vector Icons : http://www.onlinewebfonts.com/icon -->
<!DOCTYPE svg PUBLIC "-//W3C//DTD SVG 1.1//EN" "http://www.w3.org/Graphics/SVG/1.1/DTD/svg11.dtd">
<svg version="1.1" xmlns="http://www.w3.org/2000/svg" xmlns:xlink="http://www.w3.org/1999/xlink" x="0px" y="0px" viewBox="0 0 1000 1000" enable-background="new 0 0 1000 1000" xml:space="preserve">
<metadata> Svg Vector Icons : http://www.onlinewebfonts.com/icon </metadata>
<g><path d="M693.4,5.6c18.9-2.5,38.6-5.7,57.4-0.7c16.7,4,31.6,15,39.6,30.2c8.4,14.7,10.2,31.9,12,48.4c1.7,34.4,0.7,68.9,0.9,103.3c-15.6,0-31.1,0-46.7,0c0-24.6,0-49.1,0-73.7c-0.3-17.6-0.2-35.7-5.7-52.7c-2.5-7.9-10.8-11.5-18.6-11.6c-21.6-0.5-42.7,5.1-63.5,10c-152.5,41.5-305.1,83-457.5,125c-9.9,2.8-20,5-29.5,9.1c-16.4,6.9-33.2,12.9-48.6,21.7c-20,9.5-38.8,22.1-53.1,39.1c22.4-14.5,49.4-21.2,76.1-20.5c230.1,0,460.2,0,690.3,0c52-0.7,102.1,30.3,126.9,75.1c11.4,18.8,16.7,40.8,16.7,62.6v477.5c0.1,18,0.1,36.3-5,53.7c-9.3,34.7-34.2,65-66.6,81c-21.9,11.8-47.3,15-72,14.5c-230.9,0-461.8,0-692.7,0c-25.2,0.5-51.3-2.9-73.5-15.4c-35.8-18.2-61.6-54-68-93.3c-1.5-11.2-2.4-22.5-2.1-33.8c0-127.5,0-255,0-382.5c0.2-53.6-1-107.3,2.5-160.8c2.3-20.5,5.4-41.3,14.4-60.1c16-35.1,47.8-60.4,81.9-77c21-11.9,43.7-20.3,66-29.1C303.5,110.1,432.2,75,560.8,40C605,28.5,648.6,14.7,693.4,5.6L693.4,5.6z M135.9,280.8c-38.4,6.7-67.7,40.4-77,76.8c-2.5,17.9-0.6,36-2,53.9c-0.2,149.3,0,298.7-0.1,448c0.2,11.4,0.8,22.9,4.5,33.8c8,25.1,28.8,45.7,54.1,53.6c13.8,4.5,28.5,4.5,42.9,4.4c232.5,0,464.9,0.1,697.4,0c20.5,0.1,41.2-6.2,57-19.5c20.3-16.2,31.1-42.1,30.8-67.8c0.1-163.7,0-327.3,0-491c1.5-40.9-30.7-77.4-68.8-89.4c-14.1-5.2-29.3-4.2-44-4.3c-224.8,0-449.7,0-674.5,0C149.3,279.5,142.5,279.8,135.9,280.8L135.9,280.8z M740.6,559.8c26.7-8,57.7,6.4,68.6,31.9c9.5,20.3,5.5,45.9-9.8,62.3c-14.4,16.3-38.5,23.1-59.4,16.8c-24.3-6.6-42.4-30.4-42-55.5C697.7,590.2,716,566.2,740.6,559.8L740.6,559.8z"/></g>
</svg>